<svg 
id="Capa_1" 
enable-background="new 0 0 512 512" 
height="60" 
viewBox="0 0 512 512" 
width="100" 
xmlns="http://www.w3.org/2000/svg">
<path d="m512 256c0 85.06-41.49 160.43-105.33 206.98l-53.45 29.91-.02.01c-29.97 12.31-62.79 19.1-97.2 19.1-32.53 0-63.65-6.07-92.28-17.14l.01-.01-54.38-29c-66.11-46.28-109.35-123.02-109.35-209.85 0-141.38 114.62-256 256-256 95.16 0 178.2 51.93 222.32 129l.01.01 15.94 33.21.01.01c11.44 29.04 17.72 60.67 17.72 93.77z" fill="#374c81"/><path d="m512 256c0 85.05-41.49 160.43-105.33 206.98l-.02.01-53.44 29.91h-.01c-29.97 12.31-62.79 19.1-97.2 19.1-32.54 0-63.65-6.07-92.28-17.14l.01-.01-54.37-28.99c-66.12-46.29-109.36-123.03-109.36-209.86 0-46.22 12.25-89.57 33.68-127 44.12 77.07 127.16 129 222.32 129s178.21-51.93 222.32-129l15.96 33.23c11.44 29.04 17.72 60.67 17.72 93.77z" fill="#234177"/>
<path d="m487.04 145.62c-2.1-4.39-4.32-8.71-6.67-12.95h-27.97c-16.52 0-30.7 11.74-33.8 27.96-1.55 8.08-3.07 16.01-3.97 20.81h-299.12c-9.78 0-19.2 4.11-25.59 11.53-6.64 7.69-9.37 17.88-7.5 27.85l11.85 63.02 7.75 41.15 9.6 51.13c2.96 15.7 16.7 27.09 32.67 27.09h231.41v25.12c0 4.15-3.37 7.51-7.52 7.51h-216.79c-15.6 0-28.25 12.65-28.25 28.25v17.06h25.88v-17.06c0-1.31 1.06-2.37 2.37-2.37h216.79c18.45 0 33.4-14.95 33.4-33.39v-36.86l8.12-43.22 12.11-64.41 3.91-20.79.95-5.09 14.4-76.52h-.11c.76-3.94 1.5-7.87 2.25-11.78 1.23-6.45 6.86-11.11 13.42-11.11h36.16c-1.8-4.38-3.72-8.69-5.75-12.93zm-379.19 70.41c-.55-2.95.75-5.06 1.58-6.05.82-.99 2.65-2.66 5.66-2.66h47.46l2.38 25.32 2.38 25.32h-51.57zm12.76 67.81h49.14l3.62 38.52h-45.52zm23.68 93.49c-3.54 0-6.58-2.52-7.23-6l-4.34-23.08h43.08l2.74 29.08zm100.82 0h-40.58l-1.37-14.54-1.36-14.54h43.31zm0-54.97h-45.75l-3.62-38.52h49.37zm0-64.4h-51.8l-2.38-25.32-2.38-25.32h56.56zm67.82 104.83-1.37 14.54h-40.57v-29.08h43.3zm3.8-40.43h-45.74v-38.52h49.36zm8.43-89.72-2.38 25.32h-51.79v-50.64h56.55zm52.74 144.69h-40.35l1.36-14.54 1.38-14.54h43.08zm10.33-54.97h-45.51l3.63-38.52h49.13zm12.08-64.4h-51.53l2.37-25.32 2.39-25.32h56.2c-3.08 16.4-6.22 33.23-9.43 50.64z" fill="#fff"/><path d="m487.04 145.62c-2.1-4.39-4.32-8.71-6.67-12.95h-27.97c-16.52 0-30.7 11.74-33.8 27.96-1.55 8.08-3.07 16.01-3.97 20.81h-156.38v221.77h117.45v25.12c0 4.15-3.37 7.51-7.52 7.51h-109.93v25.88h109.93c18.45 0 33.4-14.95 33.4-33.39v-36.86l8.12-43.22 12.11-64.41 3.91-20.79.95-5.09 14.4-76.52h-.11c.76-3.94 1.5-7.87 2.25-11.78 1.23-6.45 6.86-11.11 13.42-11.11h36.16c-1.8-4.38-3.72-8.69-5.75-12.93zm-174.11 217.17-1.37 14.54h-40.57v-29.08h43.3zm3.8-40.43h-45.74v-38.52h49.36zm8.43-89.72-2.38 25.32h-51.79v-50.64h56.55zm52.74 144.69h-40.35l1.36-14.54 1.38-14.54h43.08zm10.33-54.97h-45.51l3.63-38.52h49.13zm12.08-64.4h-51.53l2.37-25.32 2.39-25.32h56.2c-3.08 16.4-6.22 33.23-9.43 50.64z" fill="#d1f6ff"/><path d="m401.58 403.21v25.12c0 18.44-14.95 33.39-33.4 33.39h-216.79c-1.31 0-2.37 1.06-2.37 2.37v24.54c-.64-.29-1.28-.59-1.92-.89-4.42-2.08-8.76-4.27-13.03-6.59-3.25-1.76-6.46-3.6-9.61-5.49-.44-.26-.88-.52-1.32-.79v-10.78c0-15.6 12.65-28.25 28.25-28.25h216.79c4.15 0 7.52-3.36 7.52-7.51v-25.12z" fill="#d1f6ff"/><path d="m375.697 403.205v25.126c0 4.15-3.367 7.507-7.517 7.507h-109.93v25.88h109.93c18.449 0 33.397-14.948 33.397-33.387v-25.126z" fill="#8fc8f5"/><path d="m494.28 162.23h-28.8c-4.03 0-7.31-3.28-7.31-7.32v-18.59c0-4.05 3.28-7.32 7.31-7.32h12.84c3.1 5.42 6.01 10.96 8.72 16.62 2.6 5.43 5.02 10.97 7.24 16.61z" fill="#65b2fe"/><path d="m494.28 162.23h-28.8c-4.03 0-7.31-3.28-7.31-7.32v-9.29h28.87c2.6 5.43 5.02 10.97 7.24 16.61z" fill="#8fc8f5"/><path d="m166.93 481.15c0 4.92-1.15 9.58-3.2 13.7-5.64-2.17-11.19-4.55-16.63-7.11-4.42-2.08-8.76-4.27-13.03-6.59-3.25-1.76-6.46-3.6-9.61-5.49-.44-.26-.88-.52-1.32-.79-4.72-2.87-9.34-5.89-13.85-9.05 5.32-9.28 15.32-15.53 26.78-15.53 17.04 0 30.86 13.82 30.86 30.86z" fill="#8fc8f5"/><path d="m148.92 481.15c0 2.41-.66 4.66-1.82 6.59-4.42-2.08-8.76-4.27-13.03-6.59-3.25-1.76-6.46-3.6-9.61-5.49 2.06-4.35 6.48-7.36 11.61-7.36 7.1 0 12.85 5.75 12.85 12.85z" fill="#374c81"/><path d="m406.67 462.98c-16.45 12-34.38 22.08-53.47 29.92-1.5-3.62-2.32-7.59-2.32-11.75 0-17.04 13.81-30.86 30.85-30.86 10.25 0 19.33 5 24.94 12.69z" fill="#65b2fe"/><path d="m391.74 473.08c-7.14 4.48-14.51 8.61-22.11 12.37-.48-1.34-.74-2.79-.74-4.3 0-7.1 5.75-12.85 12.84-12.85 4.04 0 7.65 1.86 10.01 4.78z" fill="#234177"/>
</svg>
